<svg version="1.0" xmlns="http://www.w3.org/2000/svg"
 width="260.000000pt" height="65.000000pt" viewBox="-30 -50 2630 700"
 preserveAspectRatio="xMidYMid meet">
<g fill="#FFFFFF" stroke="none">
<rect x="-30" y="-50" width="2630" height="750" fill="#000000"></rect>    
<text x="1000" y= "500" font-family="san-serif" font-size="400">:fractality</text>
<path transform="translate(0.000000,553.000000) scale(0.100000,-0.100000)" d="M252 5282 c-10 -7 -12 -519 -10 -2528 l3 -2519 4045 -3 c2225 -1
4055 0 4068 3 l22 5 0 2519 c0 2288 -1 2519 -16 2525 -24 9 -8097 7 -8112 -2z
m4148 -62 c0 -5 -17 -12 -37 -15 -70 -12 -270 -55 -343 -75 -114 -31 -264 -75
-325 -95 -925 -304 -1743 -874 -2356 -1640 -103 -130 -123 -157 -231 -315
-226 -331 -460 -798 -591 -1180 -68 -199 -130 -430 -172 -635 -14 -66 -29
-133 -34 -150 -6 -18 -10 767 -10 2037 -1 1644 2 2067 12 2071 24 10 4087 7
4087 -3z m3904 4 c14 -6 16 -120 16 -1198 -1 -1263 0 -1240 -44 -1061 -77 315
-256 706 -451 986 -390 558 -946 973 -1575 1177 -180 58 -226 72 -247 72 -11
0 -28 7 -39 15 -17 13 120 14 1153 15 644 0 1178 -3 1187 -6z m-3072 -682 c5
-5 7 -962 6 -2128 l-3 -2119 -2465 0 -2465 0 2 82 c1 87 44 318 94 513 196
757 532 1424 1002 1988 83 100 313 349 332 359 8 5 47 40 87 78 151 145 390
332 607 474 709 462 1547 729 2406 765 119 5 388 -3 397 -12z m322 -27 c609
-106 1107 -355 1516 -756 344 -337 585 -772 690 -1241 26 -116 52 -287 45
-299 -7 -10 -2463 -13 -2489 -3 -14 6 -16 118 -16 1167 l0 1160 86 -7 c47 -3
123 -13 168 -21z m176 -2373 c0 -4 -15 -13 -32 -21 -118 -52 -270 -192 -336
-311 -66 -121 -62 -128 -62 118 l0 222 215 0 c118 0 215 -3 215 -8z m668 -51
c5 -86 -1 -87 -73 -14 -36 37 -65 68 -65 70 0 2 30 3 68 1 l67 -3 3 -54z
m1416 13 c9 -66 7 -164 -4 -272 -38 -356 -178 -663 -409 -892 -231 -230 -521
-360 -838 -377 l-102 -6 -7 27 c-4 19 0 1274 6 1554 0 9 142 12 674 12 l673 0
7 -46z m-1809 -394 l0 -265 -235 0 -235 0 -3 48 c-6 100 45 256 110 338 72 90
207 150 328 145 l35 -1 0 -265z m164 193 c17 -21 31 -46 31 -56 0 -16 -8 -18
-62 -15 l-63 3 -3 54 c-4 76 1 85 37 67 16 -9 43 -32 60 -53z m55 -203 c-1
-45 -9 -81 -25 -115 -27 -56 -102 -140 -118 -130 -12 7 -16 297 -4 309 4 4 39
5 78 4 l70 -3 -1 -65z m2091 -1397 c-6 -16 -1395 -19 -1395 -3 0 5 12 12 28
16 65 15 214 70 307 113 328 155 633 426 816 727 81 133 170 327 206 449 38
131 38 134 41 -592 1 -384 0 -704 -3 -710z m-1915 1207 c0 -63 -6 -70 -64 -70
-29 0 -55 2 -58 5 -8 8 105 114 114 109 5 -3 8 -23 8 -44z m-5 -535 l0 -400
-28 -3 c-38 -5 -167 22 -264 54 -106 35 -240 107 -303 162 -131 114 -221 302
-266 555 l-6 37 433 -2 434 -3 0 -400z m-1045 -20 c78 -195 251 -402 433 -519
87 -55 181 -103 224 -115 15 -4 29 -13 31 -19 3 -9 -80 -12 -365 -10 l-368 3
-3 380 c-2 411 -3 407 48 280z"/>
</g>
</svg>
