<svg version="1.0" xmlns="http://www.w3.org/2000/svg"
 width="24.000000pt" height="24.000000pt" viewBox="-10000 -10000 24000 24000"
 preserveAspectRatio="xMidYMid meet">
<g fill="#FFFFFF" stroke="none">
<path transform="scale(-1, -1)" d="M4040 6610 c-450 -29 -944 -159 -1360 -358 -631 -302 -1167 -776
-1530 -1352 -128 -204 -239 -423 -304 -600 -15 -41 -31 -84 -36 -95 -42 -100
-114 -372 -148 -565 -51 -286 -61 -684 -24 -930 66 -429 235 -814 509 -1160
94 -120 311 -333 423 -417 358 -267 734 -429 1170 -503 688 -117 1282 52 1720
490 255 254 414 550 481 895 22 110 19 460 -4 555 -20 83 -76 229 -115 299
-79 145 -236 317 -368 406 -197 133 -382 197 -614 214 -205 14 -346 -12 -508
-95 -298 -153 -476 -483 -427 -792 17 -104 59 -191 132 -271 69 -77 132 -119
233 -156 63 -23 91 -27 181 -27 102 -1 109 1 182 36 134 64 209 178 210 321 1
80 -19 130 -75 181 -53 51 -95 68 -169 68 -58 0 -72 -4 -104 -28 -48 -37 -76
-84 -73 -121 4 -43 39 -42 50 2 20 78 122 99 199 40 59 -45 76 -96 55 -168
-22 -72 -56 -113 -123 -145 -71 -35 -134 -36 -233 -4 -123 39 -209 136 -240
269 -27 115 34 294 139 405 70 73 134 116 231 150 65 24 90 27 190 27 244 0
441 -79 624 -251 187 -175 273 -409 247 -666 -20 -190 -68 -348 -152 -499
-179 -324 -473 -549 -854 -655 -141 -39 -399 -52 -603 -30 -503 55 -981 280
-1328 625 -118 118 -189 205 -285 352 -69 107 -189 337 -189 365 0 8 -4 18 -8
23 -5 6 -17 39 -26 75 -10 36 -22 76 -27 90 -9 27 -30 124 -51 235 -17 95 -17
520 0 645 33 239 76 421 149 638 198 590 617 1155 1138 1533 170 124 190 137
325 214 223 128 485 242 705 308 50 15 104 31 120 36 90 27 328 73 530 103
123 18 789 18 940 0 348 -42 527 -73 815 -142 106 -26 135 -34 240 -66 167
-52 195 -61 300 -101 630 -235 1143 -534 1635 -951 140 -119 461 -443 586
-592 395 -470 704 -1014 895 -1574 42 -121 60 -182 101 -326 78 -278 133 -610
153 -925 17 -275 19 -287 38 -283 23 4 27 140 12 393 -39 672 -201 1285 -496
1880 -112 226 -121 243 -203 380 -461 766 -1128 1417 -1906 1862 -638 365
-1260 577 -2030 692 -252 38 -777 59 -1045 41z"/>
</g>
</svg>
